<svg width="42" height="42" viewBox="0 0 42 42" fill="none" xmlns="http://www.w3.org/2000/svg">
<path d="M21 0.6875C9.8 0.6875 0.6875 9.8 0.6875 21C0.6875 32.2 9.8 41.3125 21 41.3125C32.2 41.3125 41.3125 32.2 41.3125 21C41.3125 9.8 32.2 0.6875 21 0.6875ZM21 38.1875C11.5229 38.1875 3.8125 30.4771 3.8125 21C3.8125 11.5229 11.5229 3.8125 21 3.8125C30.4771 3.8125 38.1875 11.5229 38.1875 21C38.1875 30.4771 30.4771 38.1875 21 38.1875ZM26.2709 19.8937C26.8813 20.5042 26.8813 21.4938 26.2709 22.1042L20.0209 28.3542C19.7167 28.6584 19.3167 28.8125 18.9167 28.8125C18.5167 28.8125 18.1166 28.6605 17.8124 28.3542C17.202 27.7438 17.202 26.7542 17.8124 26.1437L22.9583 20.998L17.8124 15.8522C17.202 15.2418 17.202 14.2521 17.8124 13.6417C18.4229 13.0313 19.4125 13.0313 20.0229 13.6417L26.2709 19.8937Z" fill="white"/>
</svg>
