<svg width="42" height="42" viewBox="0 0 42 42" fill="none" xmlns="http://www.w3.org/2000/svg">
<path d="M24.1876 15.8542L19.0417 21L24.1876 26.1458C24.798 26.7562 24.798 27.7458 24.1876 28.3563C23.8834 28.6604 23.4833 28.8145 23.0833 28.8145C22.6833 28.8145 22.2833 28.6625 21.9791 28.3563L15.7291 22.1063C15.1187 21.4958 15.1187 20.5062 15.7291 19.8958L21.9791 13.6458C22.5895 13.0354 23.5792 13.0354 24.1896 13.6458C24.8 14.2562 24.798 15.2438 24.1876 15.8542ZM41.3125 21C41.3125 32.2 32.2 41.3125 21 41.3125C9.8 41.3125 0.6875 32.2 0.6875 21C0.6875 9.8 9.8 0.6875 21 0.6875C32.2 0.6875 41.3125 9.8 41.3125 21ZM38.1875 21C38.1875 11.5229 30.4771 3.8125 21 3.8125C11.5229 3.8125 3.8125 11.5229 3.8125 21C3.8125 30.4771 11.5229 38.1875 21 38.1875C30.4771 38.1875 38.1875 30.4771 38.1875 21Z" fill="white"/>
</svg>
