<svg width="28" height="28" viewBox="0 0 28 28" fill="none" xmlns="http://www.w3.org/2000/svg">
<path d="M19.8334 3.5H8.16669C5.27219 3.5 2.91669 5.8555 2.91669 8.75V23.9167C2.91669 24.1523 3.05901 24.3658 3.27718 24.4556C3.34951 24.486 3.42535 24.5 3.50002 24.5C3.65169 24.5 3.80102 24.4405 3.91302 24.3297L6.72936 21.5133C7.06069 21.1832 7.49937 21.0011 7.9672 21.0011H19.8334C22.7279 21.0011 25.0834 18.6456 25.0834 15.7511V8.75114C25.0834 5.85431 22.7279 3.5 19.8334 3.5ZM23.9167 15.75C23.9167 18.0017 22.085 19.8333 19.8334 19.8333H7.9672C7.18787 19.8333 6.45519 20.1367 5.90453 20.6873L4.08335 22.5085V8.75C4.08335 6.49833 5.91502 4.66667 8.16669 4.66667H19.8334C22.085 4.66667 23.9167 6.49833 23.9167 8.75V15.75ZM10.5 12.25C10.5 12.894 9.97735 13.4167 9.33335 13.4167C8.68935 13.4167 8.16669 12.894 8.16669 12.25C8.16669 11.606 8.68935 11.0833 9.33335 11.0833C9.97735 11.0833 10.5 11.6048 10.5 12.25ZM15.1667 12.25C15.1667 12.894 14.644 13.4167 14 13.4167C13.356 13.4167 12.8334 12.894 12.8334 12.25C12.8334 11.606 13.356 11.0833 14 11.0833C14.644 11.0833 15.1667 11.6048 15.1667 12.25ZM19.8334 12.25C19.8334 12.894 19.3107 13.4167 18.6667 13.4167C18.0227 13.4167 17.5 12.894 17.5 12.25C17.5 11.606 18.0227 11.0833 18.6667 11.0833C19.3107 11.0833 19.8334 11.6048 19.8334 12.25Z" fill="black"/>
</svg>
