<svg width="26" height="26" viewBox="0 0 26 26" fill="none" xmlns="http://www.w3.org/2000/svg">
<path d="M24.5462 5.72125L20.2787 1.45367C19.865 1.03992 19.3162 0.8125 18.7325 0.8125H11.75C9.165 0.8125 7.0625 2.915 7.0625 5.5V5.8125H5.5C2.915 5.8125 0.8125 7.915 0.8125 10.5V20.5C0.8125 23.085 2.915 25.1875 5.5 25.1875H14.25C16.835 25.1875 18.9375 23.085 18.9375 20.5V20.1875H20.5C23.085 20.1875 25.1875 18.085 25.1875 15.5V7.26743C25.1875 6.68368 24.96 6.13375 24.5462 5.72125ZM20.1875 4.01257L21.9863 5.81128H21.515C20.7838 5.81128 20.1875 5.21501 20.1875 4.48376V4.01257ZM17.0625 20.5C17.0625 22.0512 15.8013 23.3125 14.25 23.3125H5.5C3.94875 23.3125 2.6875 22.0512 2.6875 20.5V10.5C2.6875 8.94875 3.94875 7.6875 5.5 7.6875H7.0625V15.5C7.0625 18.085 9.165 20.1875 11.75 20.1875H17.0625V20.5ZM20.5 18.3125H11.75C10.1987 18.3125 8.9375 17.0513 8.9375 15.5V5.5C8.9375 3.94875 10.1987 2.6875 11.75 2.6875H18.3125V4.48499C18.3125 6.25124 19.7488 7.6875 21.515 7.6875H23.3125V15.5C23.3125 17.05 22.0512 18.3125 20.5 18.3125Z" fill="black"/>
</svg>
