<svg width="38" height="38" viewBox="0 0 38 38" fill="none" xmlns="http://www.w3.org/2000/svg">
<path d="M32.9262 15.3498L32.0095 14.4331C31.6342 14.0579 31.4269 13.5575 31.4269 13.0239V11.7351C31.4269 8.88831 29.112 6.57346 26.2652 6.57346H24.9748C24.4428 6.57346 23.9424 6.36617 23.5656 5.99092L22.6489 5.07401C20.6364 3.06159 17.362 3.06159 15.3496 5.07401L14.4329 5.99092C14.0576 6.36617 13.5573 6.57346 13.0237 6.57346H11.7349C8.88809 6.57346 6.57325 8.88831 6.57325 11.7351V13.0239C6.57325 13.5559 6.36586 14.0563 5.99061 14.4331L5.0738 15.3498C3.06138 17.3622 3.06138 20.6367 5.0738 22.6492L5.99061 23.5659C6.36586 23.9411 6.57325 24.4415 6.57325 24.9751V26.2638C6.57325 29.1107 8.88809 31.4255 11.7349 31.4255H13.0237C13.5557 31.4255 14.0561 31.6328 14.4329 32.0081L15.3496 32.925C16.3566 33.932 17.6772 34.4354 18.9993 34.4354C20.3214 34.4354 21.6419 33.932 22.6489 32.925L23.5656 32.0081C23.9408 31.6328 24.4412 31.4255 24.9748 31.4255H26.2652C29.1104 31.4255 31.4269 29.1107 31.4269 26.2638V24.9751C31.4269 24.4431 31.6342 23.9427 32.0095 23.5659L32.9262 22.6492C34.9386 20.6367 34.9386 17.3622 32.9262 15.3498ZM31.2463 20.9692L30.3296 21.8859C29.5047 22.7108 29.0502 23.8064 29.0502 24.9733V26.2623C29.0502 27.7997 27.7994 29.049 26.2635 29.049H24.9731C23.8062 29.049 22.709 29.5034 21.8857 30.3283L20.9689 31.245C19.8811 32.3328 18.1142 32.3328 17.028 31.245L16.1112 30.3283C15.2863 29.5034 14.1906 29.049 13.0237 29.049H11.7349C10.1975 29.049 8.94825 27.7981 8.94825 26.2623V24.9733C8.94825 23.8064 8.49386 22.7092 7.66894 21.8859L6.75213 20.9692C5.66596 19.8814 5.66596 18.1144 6.75213 17.0283L7.66894 16.1115C8.49386 15.2866 8.94825 14.1908 8.94825 13.0239V11.7351C8.94825 10.1977 10.1991 8.94846 11.7349 8.94846H13.0237C14.1906 8.94846 15.2879 8.49407 16.1112 7.66915L17.028 6.75244C18.1158 5.66469 19.8827 5.66469 20.9689 6.75244L21.8857 7.66915C22.7106 8.49407 23.8062 8.94846 24.9731 8.94846H26.2635C27.7994 8.94846 29.0502 10.1993 29.0502 11.7351V13.0239C29.0502 14.1908 29.5047 15.2882 30.3296 16.1115L31.2463 17.0283C32.3325 18.116 32.3325 19.883 31.2463 20.9692ZM24.59 13.4087C25.054 13.8727 25.054 14.6248 24.59 15.0887L15.09 24.5887C14.8589 24.8199 14.5548 24.937 14.2508 24.937C13.9468 24.937 13.6428 24.8215 13.4116 24.5887C12.9477 24.1248 12.9477 23.3727 13.4116 22.9087L22.9116 13.4087C23.3755 12.9464 24.1261 12.9464 24.59 13.4087ZM24.5425 22.9578C24.5425 23.8318 23.8332 24.5412 22.9592 24.5412C22.0852 24.5412 21.3758 23.8318 21.3758 22.9578C21.3758 22.0838 22.0852 21.3745 22.9592 21.3745C23.8332 21.3745 24.5425 22.0838 24.5425 22.9578ZM13.4592 15.0412C13.4592 14.1672 14.1685 13.4578 15.0425 13.4578C15.9165 13.4578 16.6258 14.1672 16.6258 15.0412C16.6258 15.9152 15.9165 16.6245 15.0425 16.6245C14.1685 16.6245 13.4592 15.9152 13.4592 15.0412Z" fill="white"/>
</svg>
