<svg width="28" height="28" viewBox="0 0 28 28" fill="none" xmlns="http://www.w3.org/2000/svg">
<path d="M19.8333 4.95837H8.16667C5.11117 4.95837 2.625 7.44454 2.625 10.5V17.5C2.625 20.5555 5.11117 23.0417 8.16667 23.0417H19.8333C22.8888 23.0417 25.375 20.5555 25.375 17.5V10.5C25.375 7.44454 22.8888 4.95837 19.8333 4.95837ZM8.16667 6.70837H19.8333C21.413 6.70837 22.7675 7.6813 23.3368 9.0568L16.1035 13.8798C14.826 14.7303 13.174 14.7303 11.8977 13.8798L4.66432 9.0568C5.23248 7.68014 6.587 6.70837 8.16667 6.70837ZM19.8333 21.2917H8.16667C6.076 21.2917 4.375 19.5907 4.375 17.5V10.9679L10.9258 15.3359C11.8592 15.9577 12.929 16.2691 14 16.2691C15.0698 16.2691 16.1397 15.9577 17.0742 15.3359L23.625 10.9679V17.5C23.625 19.5907 21.924 21.2917 19.8333 21.2917Z" fill="black"/>
</svg>
