<svg width="28" height="28" viewBox="0 0 28 28" fill="none" xmlns="http://www.w3.org/2000/svg">
<path d="M19.8333 5.25H8.16663C5.27213 5.25 2.91663 7.6055 2.91663 10.5V17.5C2.91663 20.3945 5.27213 22.75 8.16663 22.75H19.8333C22.7278 22.75 25.0833 20.3945 25.0833 17.5V10.5C25.0833 7.60433 22.7278 5.25 19.8333 5.25ZM8.16663 6.41667H19.8333C21.6206 6.41667 23.1268 7.57869 23.6786 9.18052L16.2656 14.1225C14.889 15.0395 13.1122 15.0395 11.7355 14.1225L4.32248 9.18052C4.87315 7.57752 6.37929 6.41667 8.16663 6.41667ZM23.9166 17.5C23.9166 19.7517 22.085 21.5833 19.8333 21.5833H8.16663C5.91496 21.5833 4.08329 19.7517 4.08329 17.5V10.5C4.08329 10.4755 4.09027 10.4522 4.09027 10.4277L11.088 15.0932C11.9723 15.6823 12.9861 15.9775 14 15.9775C15.0138 15.9775 16.0276 15.6835 16.9119 15.0932L23.9096 10.4277C23.9096 10.4522 23.9166 10.4743 23.9166 10.5V17.5Z" fill="black"/>
</svg>
