<svg width="18" height="18" viewBox="0 0 18 18" fill="none" xmlns="http://www.w3.org/2000/svg">
<path d="M13.875 1.6875H4.125C3.19425 1.6875 2.4375 2.44425 2.4375 3.375V4.93954C2.4375 5.28979 2.574 5.61975 2.82225 5.86725L6.663 9.70798C6.84 9.88498 6.9375 10.1205 6.9375 10.371V15.75C6.9375 15.963 7.05826 16.158 7.24876 16.2533C7.32826 16.293 7.4145 16.3125 7.5 16.3125C7.61925 16.3125 7.73851 16.2742 7.83751 16.2L10.8375 13.95C10.9785 13.8435 11.0625 13.677 11.0625 13.5V10.3717C11.0625 10.1212 11.16 9.88571 11.337 9.70871L15.1777 5.86798C15.426 5.61973 15.5625 5.29053 15.5625 4.94028V3.37573C15.5625 2.44423 14.8057 1.6875 13.875 1.6875ZM4.125 2.8125H13.875C14.1855 2.8125 14.4375 3.0645 14.4375 3.375V4.6875H3.5625V3.375C3.5625 3.0645 3.8145 2.8125 4.125 2.8125ZM10.542 8.91302C10.152 9.30303 9.9375 9.82049 9.9375 10.3717V13.2188L8.0625 14.625V10.3717C8.0625 9.82049 7.848 9.30303 7.458 8.91302L4.3575 5.8125H13.6417L10.542 8.91302Z" fill="#C6C6C6"/>
</svg>
