<svg width="35" height="35" viewBox="0 0 35 35" fill="none" xmlns="http://www.w3.org/2000/svg">
<path d="M17.4985 18.5934C21.7204 18.5934 25.1548 15.159 25.1548 10.9371C25.1548 6.71526 21.7204 3.28088 17.4985 3.28088C13.2767 3.28088 9.8423 6.71526 9.8423 10.9371C9.8423 15.159 13.2767 18.5934 17.4985 18.5934ZM17.4985 5.46838C20.5144 5.46838 22.9673 7.9213 22.9673 10.9371C22.9673 13.953 20.5144 16.4059 17.4985 16.4059C14.4827 16.4059 12.0298 13.953 12.0298 10.9371C12.0298 7.9213 14.4827 5.46838 17.4985 5.46838ZM28.8006 26.2016V27.6759C28.8006 29.0395 28.3033 30.3461 27.3992 31.3538C27.1833 31.5959 26.8844 31.7184 26.5839 31.7184C26.3244 31.7184 26.0633 31.6265 25.8548 31.4398C25.4041 31.0373 25.3677 30.3461 25.7702 29.8955C26.3142 29.2873 26.6146 28.4998 26.6146 27.6773V26.203C26.6146 23.9951 25.1504 22.0846 23.0519 21.5581C22.6829 21.4648 22.2863 21.5159 21.964 21.6982C19.1917 23.2411 15.7996 23.2352 13.0448 21.7025C12.7152 21.5144 12.3186 21.4604 11.9496 21.5567C9.85106 22.0846 8.38539 23.9951 8.38539 26.203V27.6773C8.38539 28.5013 8.68586 29.2888 9.22982 29.8955C9.63232 30.3461 9.59434 31.0373 9.14517 31.4398C8.69309 31.8437 8.0019 31.8044 7.60086 31.3552C6.69669 30.3461 6.1994 29.0394 6.1994 27.6773V26.203C6.1994 22.9917 8.34456 20.2092 11.4158 19.4363C12.3244 19.2059 13.3116 19.3372 14.1196 19.798C16.205 20.9589 18.7892 20.9632 20.8921 19.7936C21.6898 19.3386 22.6771 19.2088 23.5886 19.4377C26.6555 20.2063 28.8006 22.9889 28.8006 26.2016Z" fill="black"/>
</svg>
