<svg width="30" height="30" viewBox="0 0 30 30" fill="none" xmlns="http://www.w3.org/2000/svg">
<path d="M25.9943 12.118L25.2706 11.3943C24.9743 11.098 24.8106 10.703 24.8106 10.2818V9.26432C24.8106 7.01682 22.9831 5.1893 20.7356 5.1893H19.7168C19.2968 5.1893 18.9018 5.02565 18.6043 4.7294L17.8806 4.00553C16.2918 2.41678 13.7068 2.41678 12.118 4.00553L11.3943 4.7294C11.098 5.02565 10.703 5.1893 10.2818 5.1893H9.26432C7.01682 5.1893 5.1893 7.01682 5.1893 9.26432V10.2818C5.1893 10.7018 5.02558 11.0968 4.72933 11.3943L4.00553 12.118C2.41678 13.7068 2.41678 16.2919 4.00553 17.8806L4.72933 18.6044C5.02558 18.9006 5.1893 19.2956 5.1893 19.7169V20.7343C5.1893 22.9818 7.01682 24.8094 9.26432 24.8094H10.2818C10.7018 24.8094 11.0968 24.973 11.3943 25.2693L12.118 25.9931C12.913 26.7881 13.9556 27.1856 14.9993 27.1856C16.0431 27.1856 17.0856 26.7881 17.8806 25.9931L18.6043 25.2693C18.9005 24.973 19.2956 24.8094 19.7168 24.8094H20.7356C22.9818 24.8094 24.8106 22.9818 24.8106 20.7343V19.7169C24.8106 19.2969 24.9743 18.9019 25.2706 18.6044L25.9943 17.8806C27.583 16.2919 27.583 13.7068 25.9943 12.118ZM24.6681 16.5544L23.9443 17.2781C23.2931 17.9293 22.9343 18.7943 22.9343 19.7155V20.7331C22.9343 21.9469 21.9468 22.9331 20.7343 22.9331H19.7155C18.7943 22.9331 17.9281 23.2919 17.2781 23.9431L16.5543 24.6668C15.6955 25.5256 14.3006 25.5256 13.4431 24.6668L12.7193 23.9431C12.068 23.2919 11.203 22.9331 10.2818 22.9331H9.26432C8.05057 22.9331 7.0643 21.9456 7.0643 20.7331V19.7155C7.0643 18.7943 6.70557 17.9281 6.05432 17.2781L5.33052 16.5544C4.47302 15.6956 4.47302 14.3006 5.33052 13.4431L6.05432 12.7194C6.70557 12.0681 7.0643 11.203 7.0643 10.2818V9.26432C7.0643 8.05057 8.05182 7.0643 9.26432 7.0643H10.2818C11.203 7.0643 12.0693 6.70557 12.7193 6.05432L13.4431 5.3306C14.3018 4.47185 15.6968 4.47185 16.5543 5.3306L17.2781 6.05432C17.9293 6.70557 18.7943 7.0643 19.7155 7.0643H20.7343C21.9468 7.0643 22.9343 8.05182 22.9343 9.26432V10.2818C22.9343 11.203 23.2931 12.0694 23.9443 12.7194L24.6681 13.4431C25.5256 14.3018 25.5256 15.6969 24.6681 16.5544ZM19.4131 10.5856C19.7793 10.9518 19.7793 11.5456 19.4131 11.9119L11.9131 19.4119C11.7306 19.5944 11.4906 19.6868 11.2506 19.6868C11.0106 19.6868 10.7705 19.5956 10.588 19.4119C10.2218 19.0456 10.2218 18.4518 10.588 18.0856L18.088 10.5856C18.4543 10.2206 19.0468 10.2206 19.4131 10.5856ZM19.3756 18.1243C19.3756 18.8143 18.8156 19.3743 18.1256 19.3743C17.4356 19.3743 16.8756 18.8143 16.8756 18.1243C16.8756 17.4343 17.4356 16.8743 18.1256 16.8743C18.8156 16.8743 19.3756 17.4343 19.3756 18.1243ZM10.6256 11.8743C10.6256 11.1843 11.1856 10.6243 11.8756 10.6243C12.5656 10.6243 13.1256 11.1843 13.1256 11.8743C13.1256 12.5643 12.5656 13.1243 11.8756 13.1243C11.1856 13.1243 10.6256 12.5643 10.6256 11.8743Z" fill="black"/>
</svg>
