<svg width="26" height="26" viewBox="0 0 26 26" fill="none" xmlns="http://www.w3.org/2000/svg">
<path d="M22.9725 7.14442L16.7225 2.11766C14.565 0.383307 11.435 0.383307 9.2775 2.11766L3.0275 7.14442C1.62 8.27606 0.8125 9.96037 0.8125 11.766V19.2586C0.8125 22.5297 3.47625 25.1919 6.75 25.1919H10.1875V19.2586C10.1875 17.7106 11.4487 16.4502 13 16.4502C14.5513 16.4502 15.8125 17.7106 15.8125 19.2586V25.1919H19.25C22.5238 25.1919 25.1875 22.531 25.1875 19.2586V11.766C25.1875 9.96037 24.38 8.27606 22.9725 7.14442ZM23.3125 19.2586C23.3125 21.4956 21.49 23.3162 19.25 23.3162H17.6875V19.2586C17.6875 16.6765 15.585 14.5744 13 14.5744C10.415 14.5744 8.3125 16.6765 8.3125 19.2586V23.3162H6.75C4.51 23.3162 2.6875 21.4956 2.6875 19.2586V11.766C2.6875 10.5318 3.23875 9.3802 4.20125 8.60618L10.4512 3.57942C11.9287 2.39276 14.0712 2.39276 15.5475 3.57942L21.7975 8.60618C22.76 9.3802 23.3112 10.5318 23.3112 11.766V19.2586H23.3125Z" fill="#9600C1"/>
</svg>
