<svg width="34" height="34" viewBox="0 0 34 34" fill="none" xmlns="http://www.w3.org/2000/svg">
<path d="M28.4888 7.22C26.7222 5.07658 24.2672 3.89648 21.5727 3.89648C19.952 3.89648 18.3852 4.29029 16.9997 5.04113C15.6156 4.29029 14.0487 3.89648 12.4267 3.89648C9.73216 3.89648 7.27568 5.07658 5.51051 7.22C3.58951 9.55183 2.79334 12.7365 3.37842 15.7384C4.75967 22.8161 11.9677 27.7603 15.0036 29.5566C15.6198 29.9207 16.3097 30.1034 16.9997 30.1034C17.6896 30.1034 18.3809 29.9221 18.9972 29.5566C22.0317 27.7589 29.2411 22.8161 30.6223 15.7384C31.206 12.7365 30.4098 9.55183 28.4888 7.22ZM28.5356 15.3318C27.3201 21.5638 20.7028 26.0773 17.9134 27.7277C17.351 28.062 16.6483 28.0606 16.0859 27.7277C13.2965 26.0773 6.67923 21.5638 5.46373 15.3318C4.99765 12.9462 5.62948 10.4188 7.14957 8.57147C8.50532 6.92672 10.3782 6.02148 12.4267 6.02148C13.8688 6.02148 15.2515 6.41815 16.4273 7.16898C16.7758 7.3914 17.2235 7.3914 17.572 7.16898C18.7478 6.41815 20.1305 6.02148 21.5727 6.02148C23.6197 6.02148 25.494 6.92672 26.8497 8.57147C28.3698 10.4188 29.0002 12.9448 28.5356 15.3318Z" fill="black"/>
</svg>
