<svg width="35" height="35" viewBox="0 0 35 35" fill="none" xmlns="http://www.w3.org/2000/svg">
<path d="M15.6778 21.8768V26.2518C15.6778 26.8555 15.1878 27.3455 14.5841 27.3455C13.9803 27.3455 13.4903 26.8555 13.4903 26.2518V21.8768C13.4903 21.273 13.9803 20.783 14.5841 20.783C15.1878 20.783 15.6778 21.273 15.6778 21.8768ZM20.4174 20.783C19.8137 20.783 19.3237 21.273 19.3237 21.8768V26.2518C19.3237 26.8555 19.8137 27.3455 20.4174 27.3455C21.0212 27.3455 21.5112 26.8555 21.5112 26.2518V21.8768C21.5112 21.273 21.0212 20.783 20.4174 20.783ZM29.4547 18.1784L28.3361 26.943C27.9891 29.6657 25.6572 31.7191 22.9111 31.7191H12.1224C9.38659 31.7191 7.05469 29.673 6.70031 26.9605L5.54822 18.1784C4.21092 17.5265 3.28052 16.1674 3.28052 14.5837C3.28052 12.3714 5.07864 10.5732 7.29093 10.5732H9.5893L13.6449 3.81243C13.9555 3.29473 14.6278 3.12544 15.1455 3.43753C15.6632 3.74815 15.8324 4.42052 15.5203 4.93823L12.1384 10.5732H22.8587L19.4768 4.93823C19.1662 4.42052 19.3339 3.74815 19.8516 3.43753C20.3678 3.1269 21.0401 3.29473 21.3522 3.81243L25.4078 10.5732H27.7091C29.9214 10.5732 31.7195 12.3714 31.7195 14.5837C31.7195 16.1674 30.7905 17.5265 29.4547 18.1784ZM27.1958 18.5955H7.81013L8.87032 26.6776C9.08324 28.3051 10.4818 29.533 12.1224 29.533H22.9111C24.5576 29.533 25.9576 28.3008 26.1647 26.6674L27.1958 18.5955ZM29.532 14.5851C29.532 13.5803 28.7139 12.7622 27.7091 12.7622H7.2924C6.28761 12.7622 5.46949 13.5803 5.46949 14.5851C5.46949 15.5899 6.28761 16.408 7.2924 16.408H27.7091C28.7139 16.408 29.532 15.5899 29.532 14.5851Z" fill="black"/>
</svg>
