<svg width="24" height="24" viewBox="0 0 24 24" fill="none" xmlns="http://www.w3.org/2000/svg">
<path d="M20.3767 10.29L18.5368 12.13C18.2437 12.423 17.7685 12.423 17.4754 12.13C17.1822 11.838 17.1822 11.362 17.4754 11.069L19.3152 9.229C20.5668 7.978 20.5668 5.94094 19.3152 4.68994C18.1016 3.47694 15.9887 3.47694 14.7751 4.68994L11.4146 8.05005C11.2815 8.18305 11.1835 8.29998 11.1145 8.40698C10.151 9.71898 10.2881 11.463 11.4146 12.59C11.7077 12.883 11.7077 13.358 11.4146 13.651C11.2685 13.797 11.0765 13.871 10.8844 13.871C10.6923 13.871 10.5002 13.798 10.3541 13.651C8.69935 11.996 8.49926 9.43303 9.87988 7.55603C9.98193 7.39603 10.145 7.19899 10.3541 6.98999L13.7146 3.63C14.604 2.74 15.7876 2.25 17.0462 2.25C18.3047 2.25 19.4873 2.74 20.3777 3.63C22.2135 5.466 22.2135 8.45304 20.3767 10.29ZM12.5941 10.349C12.301 10.641 12.301 11.117 12.5941 11.41C13.4805 12.297 13.7697 13.5749 13.3435 14.7629C13.2004 15.1929 12.9413 15.603 12.5941 15.95L9.23359 19.3101C8.02004 20.5231 5.90712 20.5231 4.69357 19.3101C3.442 18.0591 3.442 16.022 4.69357 14.771L6.53339 12.931C6.82653 12.638 6.82653 12.163 6.53339 11.87C6.24026 11.577 5.76501 11.577 5.47188 11.87L3.63205 13.71C1.79522 15.546 1.79522 18.534 3.63205 20.37C4.52145 21.26 5.70501 21.75 6.96358 21.75C8.22215 21.75 9.40471 21.26 10.2951 20.37L13.6556 17.01C14.1669 16.499 14.551 15.886 14.7611 15.254C15.3714 13.557 14.9382 11.632 13.6556 10.35C13.3625 10.056 12.8873 10.056 12.5941 10.349Z" fill="black"/>
</svg>
