<svg width="30" height="30" viewBox="0 0 30 30" fill="#FF0000" xmlns="http://www.w3.org/2000/svg">
<path d="M15.9377 26.25C15.9377 26.7675 15.5177 27.1875 15.0002 27.1875H10.0002C6.72649 27.1875 4.06274 24.5238 4.06274 21.25V8.75C4.06274 5.47625 6.72649 2.8125 10.0002 2.8125H15.0002C15.5177 2.8125 15.9377 3.2325 15.9377 3.75C15.9377 4.2675 15.5177 4.6875 15.0002 4.6875H10.0002C7.76024 4.6875 5.93774 6.51 5.93774 8.75V21.25C5.93774 23.49 7.76024 25.3125 10.0002 25.3125H15.0002C15.5177 25.3125 15.9377 25.7325 15.9377 26.25ZM25.6627 14.3375L20.6627 9.33746C20.2965 8.97121 19.7027 8.97121 19.3365 9.33746C18.9702 9.70371 18.9702 10.2975 19.3365 10.6638L22.7365 14.0637H12.5002C11.9827 14.0637 11.5627 14.4837 11.5627 15.0012C11.5627 15.5187 11.9827 15.9387 12.5002 15.9387H22.7365L19.3365 19.3387C18.9702 19.7049 18.9702 20.2987 19.3365 20.665C19.519 20.8475 19.759 20.9399 19.999 20.9399C20.239 20.9399 20.479 20.8487 20.6615 20.665L25.6615 15.665C26.029 15.2962 26.029 14.7037 25.6627 14.3375Z" fill="#FF0000"/>
</svg>
