<svg width="20" height="24" viewBox="0 0 20 24" fill="none" xmlns="http://www.w3.org/2000/svg">
<path d="M10.0002 5.29167C7.5875 5.29167 5.62516 7.254 5.62516 9.66667C5.62516 12.0793 7.5875 14.0417 10.0002 14.0417C12.4128 14.0417 14.3752 12.0793 14.3752 9.66667C14.3752 7.254 12.4128 5.29167 10.0002 5.29167ZM10.0002 12.2917C8.55233 12.2917 7.37516 11.1145 7.37516 9.66667C7.37516 8.21883 8.55233 7.04167 10.0002 7.04167C11.448 7.04167 12.6252 8.21883 12.6252 9.66667C12.6252 11.1145 11.448 12.2917 10.0002 12.2917ZM9.9955 0.625C4.8435 0.625 0.958496 4.51233 0.958496 9.66667C0.958496 16.9093 6.48383 21.4219 8.85799 23.0249C9.20333 23.2583 9.59883 23.375 9.9955 23.375C10.3898 23.375 10.7853 23.2584 11.1307 23.0262C13.5095 21.4197 19.0418 16.9012 19.0418 9.66553C19.0418 4.51119 15.1533 0.625 9.9955 0.625ZM10.1518 21.576C10.055 21.6413 9.93482 21.6413 9.83799 21.576C8.16499 20.4467 2.7085 16.2502 2.7085 9.66667C2.7085 5.50983 5.841 2.375 9.9955 2.375C14.1547 2.375 17.2918 5.50983 17.2918 9.66667C17.2918 16.0635 12.2985 20.127 10.1518 21.576Z" fill="black"/>
</svg>
