<svg width="97" height="97" viewBox="0 0 97 97" fill="none" xmlns="http://www.w3.org/2000/svg">
<circle cx="48.3689" cy="48.3689" r="48.3689" fill="#9600C1"/>
<path d="M47.6398 32.9124C42.3433 32.9124 38.0353 37.2203 38.0353 42.5169C38.0353 47.8135 42.3433 52.1214 47.6398 52.1214C52.9364 52.1214 57.2443 47.8135 57.2443 42.5169C57.2443 37.2203 52.9364 32.9124 47.6398 32.9124ZM47.6398 48.2796C44.4614 48.2796 41.8771 45.6954 41.8771 42.5169C41.8771 39.3385 44.4614 36.7542 47.6398 36.7542C50.8183 36.7542 53.4025 39.3385 53.4025 42.5169C53.4025 45.6954 50.8183 48.2796 47.6398 48.2796ZM47.6296 22.6676C36.3193 22.6676 27.7905 31.2015 27.7905 42.5169C27.7905 58.4168 39.9204 68.3234 45.1324 71.8425C45.8905 72.3548 46.7588 72.611 47.6296 72.611C48.4953 72.611 49.3635 72.355 50.1216 71.8453C55.3439 68.3186 67.4892 58.399 67.4892 42.5144C67.4892 31.199 58.9527 22.6676 47.6296 22.6676ZM47.9728 68.6617C47.7602 68.8051 47.4964 68.8051 47.2838 68.6617C43.611 66.1824 31.6323 56.9698 31.6323 42.5169C31.6323 33.3913 38.5092 26.5094 47.6296 26.5094C56.7603 26.5094 63.6474 33.3913 63.6474 42.5169C63.6474 56.56 52.6854 65.4806 47.9728 68.6617Z" fill="white"/>
</svg>
