<svg width="30" height="30" viewBox="0 0 30 30" fill="none" xmlns="http://www.w3.org/2000/svg">
<g id="2 - Regular / package">
<path id="package-Regular" d="M23.52 5.88683L18.0225 3.4442C16.1288 2.60295 13.8712 2.60295 11.9775 3.4442L6.48003 5.88683C4.21753 6.89183 2.8125 8.93422 2.8125 11.2167V18.7793C2.8125 21.0618 4.21753 23.1029 6.48003 24.1092L11.9788 26.5518C12.9163 26.9681 13.9437 27.1767 14.9712 27.1805C14.9812 27.1805 14.99 27.1867 15 27.1867C15.01 27.1867 15.0188 27.1817 15.0288 27.1805C16.0563 27.1767 17.0837 26.9681 18.0212 26.5518L23.52 24.1092C25.7825 23.1042 27.1875 21.0618 27.1875 18.7793V11.2167C27.1875 8.93422 25.7825 6.89183 23.52 5.88683ZM12.7387 5.15929C13.4475 4.84429 14.2237 4.68794 15 4.68794C15.7763 4.68794 16.5538 4.84429 17.2613 5.15929L22.7587 7.60176C23.1287 7.76551 23.4612 7.97046 23.76 8.20296L20.6225 9.59807L11.6837 5.62682L12.7387 5.15929ZM7.23999 7.60054L9.37378 6.65297L18.3125 10.6242L16.5012 11.4293C15.5987 11.8293 14.3963 11.8305 13.495 11.4293L6.23749 8.20296C6.53874 7.96921 6.87124 7.76554 7.23999 7.60054ZM7.24129 22.3942C5.66629 21.6942 4.6875 20.3093 4.6875 18.7781V11.2155C4.6875 10.6893 4.81 10.1842 5.02625 9.71419L12.735 13.1406C13.1487 13.3243 13.6 13.438 14.0625 13.5142V25.2118C13.6075 25.1355 13.1613 25.023 12.74 24.8355L7.24129 22.3942ZM25.3125 18.7793C25.3125 20.3093 24.3337 21.6955 22.7587 22.3955L17.26 24.8379C16.84 25.0242 16.3925 25.138 15.9375 25.213V13.5155C16.4 13.4392 16.8513 13.3267 17.265 13.143L24.9738 9.71678C25.1888 10.1868 25.3125 10.6917 25.3125 11.2179V18.7793Z" fill="black"/>
</g>
</svg>
