<svg width="98" height="97" viewBox="0 0 98 97" fill="none" xmlns="http://www.w3.org/2000/svg">
<circle cx="48.8147" cy="48.3689" r="48.3689" fill="#E2E2E2"/>
<path d="M60.8876 27.79H35.2756C28.5678 27.79 23.1099 33.248 23.1099 39.9557V55.3229C23.1099 62.0307 28.5678 67.4886 35.2756 67.4886H60.8876C67.5954 67.4886 73.0533 62.0307 73.0533 55.3229V39.9557C73.0533 33.248 67.5954 27.79 60.8876 27.79ZM35.2756 31.6318H60.8876C65.4772 31.6318 69.2115 35.3661 69.2115 39.9557V40.596H26.9517V39.9557C26.9517 35.3661 30.6859 31.6318 35.2756 31.6318ZM60.8876 63.6468H35.2756C30.6859 63.6468 26.9517 59.9126 26.9517 55.3229V44.4378H69.2115V55.3229C69.2115 59.9126 65.4772 63.6468 60.8876 63.6468ZM44.8801 55.3229C44.8801 56.3833 44.0195 57.2438 42.9592 57.2438H35.2756C34.2152 57.2438 33.3547 56.3833 33.3547 55.3229C33.3547 54.2626 34.2152 53.402 35.2756 53.402H42.9592C44.0195 53.402 44.8801 54.2626 44.8801 55.3229Z" fill="white"/>
</svg>
