<svg width="28" height="28" viewBox="0 0 28 28" fill="none" xmlns="http://www.w3.org/2000/svg">
<path d="M25.0136 19.4188C24.9879 19.273 24.9587 19.1446 24.9261 19.0303C24.7522 18.4085 24.2086 17.9359 23.5424 17.8251L18.4884 16.984C17.8537 16.8767 17.2097 17.1239 16.8177 17.6244C16.7582 17.6991 16.7023 17.7761 16.6486 17.8543C16.4596 18.1308 16.1446 18.2346 15.8658 18.1133C13.1778 16.9443 11.0533 14.8198 9.88544 12.1318C9.76411 11.8529 9.86556 11.5403 10.1397 11.3536C10.2436 11.2824 10.3439 11.2078 10.4431 11.1284C10.9307 10.7341 11.1723 10.1041 11.0743 9.48226L10.2926 4.51809C10.1899 3.86475 9.74194 3.33278 9.12594 3.12861C8.96844 3.07728 8.78528 3.02826 8.57294 2.98976C7.18228 2.74126 5.75895 3.13565 4.66578 4.07482C3.51545 5.06415 2.87844 6.49915 2.91927 8.01232C3.1701 17.3317 10.6683 24.8298 19.9876 25.0818C20.0331 25.083 20.0774 25.0829 20.1229 25.0829C21.5742 25.0829 22.9462 24.4541 23.9052 23.3446C24.8526 22.2503 25.2563 20.8188 25.0136 19.4188ZM23.0209 22.5851C22.2626 23.4624 21.1741 23.9618 20.0179 23.9175C11.3169 23.683 4.31806 16.683 4.08472 7.98312C4.05322 6.82229 4.54211 5.72214 5.42528 4.96264C6.08911 4.39214 6.91156 4.08764 7.75156 4.08764C7.95573 4.08764 8.16107 4.10513 8.36523 4.14247C8.51573 4.1693 8.64526 4.20314 8.75609 4.23931C8.95676 4.30581 9.10255 4.48311 9.13755 4.70244L9.92041 9.66662C9.95307 9.87778 9.8714 10.0901 9.70807 10.2231C9.63573 10.2826 9.55994 10.3387 9.48177 10.3912C8.7421 10.894 8.46791 11.8016 8.81441 12.5984C10.1012 15.5594 12.4393 17.8974 15.4003 19.1854C16.1959 19.5296 17.1048 19.2566 17.6123 18.5135C17.6508 18.4575 17.6916 18.4015 17.7347 18.3466C17.8631 18.1798 18.0778 18.1005 18.2959 18.1355L23.3499 18.9766C23.5716 19.0139 23.7489 19.1586 23.8014 19.3453C23.8248 19.4258 23.8446 19.5156 23.8621 19.6183C24.0476 20.673 23.7407 21.7533 23.0209 22.5851Z" fill="black"/>
</svg>
