<svg width="20" height="20" viewBox="0 0 20 20" fill="none" xmlns="http://www.w3.org/2000/svg">
<path d="M19.6857 14.6001C19.6627 14.4651 19.6348 14.3472 19.6058 14.2422C19.4308 13.6172 18.8867 13.1411 18.2197 13.0311L13.8877 12.3101C13.2497 12.2031 12.6107 12.4501 12.2187 12.9521C12.1647 13.0211 12.1128 13.0911 12.0648 13.1621C11.9938 13.2661 11.8528 13.3631 11.6998 13.2961C9.45276 12.3191 7.67875 10.5451 6.70275 8.29806C6.63475 8.14306 6.72972 8.00708 6.83172 7.93808C6.92672 7.87408 7.01872 7.80512 7.10772 7.73312C7.59472 7.33912 7.83676 6.7091 7.73876 6.0881L7.06774 1.8331C6.96474 1.1811 6.51777 0.648057 5.89977 0.444057C5.75477 0.396057 5.58678 0.352104 5.39178 0.317104C4.12578 0.0911044 2.83075 0.449066 1.83575 1.30307C0.792747 2.19907 0.214739 3.50113 0.252739 4.87313C0.471739 12.9951 7.00373 19.5282 15.1257 19.7472C15.1667 19.7482 15.2078 19.7491 15.2488 19.7491C16.5658 19.7491 17.8107 19.1791 18.6797 18.1731C19.5407 17.1761 19.9077 15.8731 19.6857 14.6001ZM17.5428 17.1931C16.9418 17.8881 16.0677 18.2591 15.1647 18.2491C7.84073 18.0511 1.94872 12.1581 1.75072 4.8331C1.72672 3.9141 2.11274 3.04213 2.81274 2.44113C3.34174 1.98713 3.97273 1.74911 4.63073 1.74911C4.79473 1.74911 4.96076 1.76406 5.12676 1.79306C5.24276 1.81406 5.34173 1.83913 5.42773 1.86813C5.51073 1.89513 5.57172 1.9721 5.58672 2.0671L6.25774 6.32211C6.27274 6.41511 6.23676 6.50913 6.16576 6.56613C6.10776 6.61313 6.04872 6.65709 5.98772 6.69809C5.25372 7.19709 4.98177 8.10108 5.32677 8.89608C6.45477 11.4921 8.50576 13.5431 11.1008 14.6711C11.8928 15.0151 12.7988 14.7442 13.3038 14.0072C13.3338 13.9642 13.3647 13.9212 13.3987 13.8772C13.4527 13.8082 13.5468 13.7752 13.6418 13.7892L17.9737 14.5101C18.0657 14.5261 18.1427 14.5821 18.1617 14.6471C18.1797 14.7091 18.1947 14.7781 18.2087 14.8571C18.3527 15.6851 18.1098 16.5361 17.5428 17.1931Z" fill="black"/>
</svg>
