<svg width="32" height="32" viewBox="0 0 32 32" fill="none" xmlns="http://www.w3.org/2000/svg">
<path d="M28.7068 27.292L22.4482 21.0334C24.0402 19.1254 25.0002 16.6733 25.0002 14C25.0002 7.93467 20.0655 3 14.0002 3C7.93485 3 3.00018 7.93467 3.00018 14C3.00018 20.0653 7.93485 25 14.0002 25C16.6735 25 19.1255 24.0401 21.0335 22.4481L27.2922 28.7067C27.4868 28.9014 27.7428 29 27.9988 29C28.2548 29 28.5108 28.9027 28.7055 28.7067C29.0975 28.316 29.0975 27.6827 28.7068 27.292ZM5.00018 14C5.00018 9.03733 9.03752 5 14.0002 5C18.9628 5 23.0002 9.03733 23.0002 14C23.0002 18.9627 18.9628 23 14.0002 23C9.03752 23 5.00018 18.9627 5.00018 14Z" fill="black" fill-opacity="0.5"/>
</svg>
