<svg width="34" height="34" viewBox="0 0 34 34" fill="none" xmlns="http://www.w3.org/2000/svg">
<path d="M15.2299 21.2518V25.5018C15.2299 26.0883 14.7539 26.5643 14.1674 26.5643C13.5809 26.5643 13.1049 26.0883 13.1049 25.5018V21.2518C13.1049 20.6653 13.5809 20.1893 14.1674 20.1893C14.7539 20.1893 15.2299 20.6653 15.2299 21.2518ZM19.8341 20.1893C19.2476 20.1893 18.7716 20.6653 18.7716 21.2518V25.5018C18.7716 26.0883 19.2476 26.5643 19.8341 26.5643C20.4206 26.5643 20.8966 26.0883 20.8966 25.5018V21.2518C20.8966 20.6653 20.4206 20.1893 19.8341 20.1893ZM28.6131 17.6591L27.5265 26.1733C27.1894 28.8182 24.9241 30.8129 22.2565 30.8129H11.7761C9.11841 30.8129 6.85313 28.8252 6.50888 26.1902L5.3897 17.6591C4.09062 17.0259 3.1868 15.7056 3.1868 14.1671C3.1868 12.018 4.93355 10.2712 7.08263 10.2712H9.31533L13.255 3.70359C13.5568 3.20067 14.2099 3.03623 14.7128 3.33939C15.2157 3.64114 15.3801 4.2943 15.0769 4.79722L11.7916 10.2712H22.2056L18.9203 4.79722C18.6186 4.2943 18.7815 3.64114 19.2844 3.33939C19.7859 3.03764 20.439 3.20067 20.7421 3.70359L24.6819 10.2712H26.9174C29.0665 10.2712 30.8132 12.018 30.8132 14.1671C30.8132 15.7056 29.9108 17.0259 28.6131 17.6591ZM26.4187 18.0643H7.58699L8.61689 25.9154C8.82373 27.4964 10.1823 28.6893 11.7761 28.6893H22.2565C23.856 28.6893 25.216 27.4923 25.4172 25.9056L26.4187 18.0643ZM28.6882 14.1685C28.6882 13.1924 27.8935 12.3976 26.9174 12.3976H7.08406C6.10797 12.3976 5.31322 13.1924 5.31322 14.1685C5.31322 15.1445 6.10797 15.9393 7.08406 15.9393H26.9174C27.8935 15.9393 28.6882 15.1445 28.6882 14.1685Z" fill="black"/>
</svg>
