<svg width="29" height="27" viewBox="0 0 29 27" fill="none" xmlns="http://www.w3.org/2000/svg">
<path d="M27.5294 12.961L22.9881 17.3246L24.06 23.4801C24.235 24.4849 23.8296 25.4868 23.0013 26.0935C22.1569 26.7103 21.0544 26.7951 20.1239 26.3153L14.5006 23.4029L8.87731 26.3153C8.47772 26.5223 8.0446 26.6243 7.61439 26.6243C7.04564 26.6243 6.48123 26.4449 5.99998 26.0935C5.17311 25.4868 4.76626 24.4849 4.94126 23.4801L6.01311 17.3246L1.47189 12.961C0.728135 12.2464 0.461231 11.1951 0.776231 10.2181C1.09415 9.22931 1.93706 8.52502 2.97539 8.37627L9.25938 7.47621L12.0681 1.86896C12.529 0.947291 13.4623 0.375732 14.5006 0.375732C15.539 0.375732 16.4723 0.948749 16.9331 1.86896L19.7419 7.47621L26.0259 8.37627C27.0627 8.52502 27.9056 9.22931 28.2235 10.2181C28.5385 11.1951 28.2731 12.2464 27.5294 12.961Z" fill="#FFB800"/>
</svg>
