<svg width="28" height="28" viewBox="0 0 28 28" fill="none" xmlns="http://www.w3.org/2000/svg">
<path d="M19.5423 20.5771V21.1687C19.5423 22.1883 19.1655 23.1649 18.4818 23.9197C18.3092 24.1099 18.0711 24.2067 17.8331 24.2067C17.6231 24.2067 17.4132 24.132 17.2452 23.9804C16.887 23.656 16.8602 23.103 17.1845 22.7436C17.5753 22.312 17.7923 21.752 17.7923 21.1675V20.5759C17.7923 18.9904 16.7248 17.6173 15.1953 17.2381C14.9328 17.1728 14.6528 17.2078 14.4277 17.335C12.3463 18.4771 9.81117 18.4713 7.74733 17.3397C7.51283 17.2067 7.23396 17.1717 6.97146 17.237C5.44079 17.6173 4.3733 18.9893 4.3733 20.5748V21.1662C4.3733 21.7496 4.58913 22.3097 4.98113 22.7425C5.30546 23.1007 5.27863 23.6536 4.92046 23.9779C4.56229 24.3034 4.01051 24.2766 3.68501 23.9173C3.00134 23.1624 2.62451 22.1859 2.62451 21.1662V20.5748C2.62451 18.1831 4.23796 16.1123 6.54912 15.5383C7.24096 15.3668 7.98767 15.466 8.59784 15.809C10.1285 16.649 12.0266 16.6536 13.576 15.8043C14.1791 15.4648 14.927 15.3668 15.6176 15.5383C17.9288 16.1158 19.5423 18.1866 19.5423 20.5771ZM21.451 15.5418C20.982 15.4263 20.5071 15.7122 20.3905 16.18C20.2738 16.649 20.5608 17.1238 21.0286 17.2404C22.5581 17.6196 23.6257 18.9928 23.6257 20.5784V21.1698C23.6257 21.7543 23.4098 22.3131 23.0178 22.7459C22.6935 23.1041 22.7203 23.6571 23.0785 23.9826C23.2465 24.1343 23.4565 24.2089 23.6665 24.2089C23.9045 24.2089 24.1425 24.1121 24.3152 23.922C24.9988 23.1671 25.3757 22.1906 25.3757 21.1709V20.5795C25.3757 18.1867 23.7621 16.1158 21.451 15.5418ZM5.54232 9.3328C5.54232 6.2773 8.02848 3.79114 11.084 3.79114C14.1395 3.79114 16.6257 6.2773 16.6257 9.3328C16.6257 12.3883 14.1395 14.8745 11.084 14.8745C8.02848 14.8745 5.54232 12.3883 5.54232 9.3328ZM7.29232 9.3328C7.29232 11.4235 8.99332 13.1245 11.084 13.1245C13.1747 13.1245 14.8757 11.4235 14.8757 9.3328C14.8757 7.24214 13.1747 5.54114 11.084 5.54114C8.99332 5.54114 7.29232 7.24214 7.29232 9.3328ZM22.459 9.3328C22.459 6.54214 20.3742 4.17846 17.6092 3.83429C17.132 3.77712 16.6921 4.11429 16.6326 4.59379C16.5731 5.07329 16.9126 5.51083 17.3921 5.57033C19.2833 5.806 20.709 7.42414 20.709 9.3328C20.709 10.489 20.191 11.5681 19.2868 12.2938C18.91 12.5959 18.8493 13.1467 19.1515 13.5235C19.3241 13.7394 19.5785 13.8514 19.834 13.8514C20.0265 13.8514 20.2201 13.7883 20.3811 13.6588C21.7018 12.5995 22.459 11.0221 22.459 9.3328Z" fill="black"/>
</svg>
